<svg id="Layer_1" data-name="Layer 1" xmlns="http://www.w3.org/2000/svg" xmlns:xlink="http://www.w3.org/1999/xlink" viewBox="0 0 2713.28 475.88"><defs><style>.cls-1{fill:none;}.cls-2{clip-path:url(#clip-path);}.cls-3{clip-path:url(#clip-path-2);}.cls-4{fill:#ebff55;}.cls-5{fill:#fff;}</style><clipPath id="clip-path" transform="translate(600.1 -23.54)"/><clipPath id="clip-path-2" transform="translate(600.1 -23.54)"><rect class="cls-1" x="-1243.46" y="-1039.51" width="4000" height="2666.67"/></clipPath></defs><title>Untitled-2</title><g id="Layer_2" data-name="Layer 2"><g class="cls-2"><g id="Layer_1-2" data-name="Layer 1-2"><g class="cls-3"><path class="cls-4" d="M-600.1,99A74.12,74.12,0,0,1-526,24.94a74.12,74.12,0,0,1,74.11,74.13A74.12,74.12,0,0,1-526,173.18,74.12,74.12,0,0,1-600.1,99.06h0" transform="translate(600.1 -23.54)"/><path class="cls-4" d="M-466.61,203.49H-594.7c-2.67,19.55-3,51.08-.53,82.57,2.87,37.16,12.55,100.54,61.84,149.81,49.1,49.08,112.24,58.18,149.81,61.83,25.91,2.52,64.32,2.23,84.3-.53V371.29H-466.61Z" transform="translate(600.1 -23.54)"/><path class="cls-4" d="M-119.19,423.86A74.12,74.12,0,0,1-193.31,498a74.12,74.12,0,0,1-74.12-74.12,74.12,74.12,0,0,1,74.12-74.12h0a74.11,74.11,0,0,1,74.12,74.1v0" transform="translate(600.1 -23.54)"/><path class="cls-4" d="M-252.68,319.49h128.09c2.67-19.55,3-51.09.53-82.57-2.87-37.16-12.55-100.55-61.84-149.81C-235,38-298.14,28.93-335.71,25.27-361.62,22.75-400,23-420,25.8V151.65h167.33Z" transform="translate(600.1 -23.54)"/><path class="cls-5" d="M1893,426.49c-47.88,0-82.33-30.37-82.33-85.26V184.7h-71.24V420.61H1672.9V220.32c0-59,43.21-97.52,101.6-97.52,56.06,0,99.27,38.54,99.27,97.52V368.64h38.54V220.32c0-59,43.21-97.52,99.27-97.52,58.39,0,101.6,38.54,101.6,97.52V420.61h-66.56V184.7h-71.24V341.19c0,54.31-33.87,85.26-82.34,85.26M1445.75,128.64V365.13h126.13V128.64H1639V314.92c0,76.49-47.3,111.53-130.21,111.53-82.34,0-130.22-35-130.22-111.53V128.64ZM1277,184.11H1126.34V246.6H1277ZM1126.34,298v66h150.07V323.69h67.13c-7,64.23-53.13,102.77-138.39,102.77-99.85,0-148.9-53.14-148.9-153.58,0-98.1,52-150.07,146-150.07,95.77,0,144.82,51.39,144.82,150.07,0,8.18,0,16.94-1.17,25.11ZM763.72,128.64h67.74V244.26H958.17V128.64h66v292h-66v-118H831.46v118H763.72Zm-108,66.57h81.17V128.64H655.72Zm-79.41,225.4.58-225.4H485.22V128.64h66c57.81,0,95.77,38,95.77,95.77v196.2ZM387.7,219.15h73V420.61h-73Zm36.2-17.52c23.36,0,41.46-18.68,41.46-42s-18.1-40.88-41.46-40.88-41.45,17.52-41.45,40.88,18.1,42,41.45,42m-229.48-73L193.84,354h165.8V420.6H217.75c-57.81,0-94.6-38-94.6-95.77V128.63Z" transform="translate(600.1 -23.54)"/></g></g></g></g></svg>