<svg xmlns="http://www.w3.org/2000/svg" width="971.185" height="668.201" viewBox="0 0 971.185 668.201">
  <g id="Group_243" data-name="Group 243" transform="translate(-6177.708 -8975.263)">
    <line id="Line_167" data-name="Line 167" x2="749.866" transform="translate(6393.834 9524.013)" fill="none" stroke="#fff" stroke-miterlimit="10" stroke-width="3" stroke-dasharray="1 5"/>
    <path id="Path_460" data-name="Path 460" d="M6393.834,9642.463h749.311v-118.45H6499.557s-40.876,86.7-105.723,91.728" fill="#b0ad8f"/>
    <path id="Path_461" data-name="Path 461" d="M7143.145,9524.013V9038.483H6911.9c-288.757,17.2-350.109,302.309-350.109,302.309-34.355,143.437-62.238,183.221-62.238,183.221Z" fill="#ebff54"/>
    <path id="Path_462" data-name="Path 462" d="M6393.834,8975.263v667.2h749.311" fill="none" stroke="#fff" stroke-miterlimit="10" stroke-width="2"/>
    <text id="_100_000_10_000_1_000_100_10_1" data-name="100 000
10 000
1 000
100
10
1" transform="translate(6177.708 9017.354)" fill="#fff" font-size="24.508" font-family="Lucky-Linear, Lucky Linear"><tspan x="75" y="19">100 000</tspan><tspan x="92.351" y="115.281">10 000</tspan><tspan x="109.703" y="211.561">1 000</tspan><tspan x="134.652" y="307.842">100</tspan><tspan x="152.003" y="404.122">10</tspan><tspan x="169.355" y="500.403">1</tspan></text>
    <path id="Path_463" data-name="Path 463" d="M6394.858,9615.74c37.852-2.462,111.4-38.48,163.223-260.146,32.137-137.461,118.392-240.313,219.722-286.144,84.577-38.253,175.162-30.278,263.164-30.278h102.178" fill="none" stroke="#020202" stroke-miterlimit="10" stroke-width="2"/>
    <line id="Line_168" data-name="Line 168" x2="649.336" transform="translate(6499.557 9524.013)" fill="none" stroke="#000" stroke-miterlimit="10" stroke-width="2"/>
    <g id="Group_242" data-name="Group 242">
      <path id="Path_464" data-name="Path 464" d="M6933.633,9071.937a4.982,4.982,0,1,1,4.982,4.981,4.982,4.982,0,0,1-4.982-4.981"/>
      <path id="Path_465" data-name="Path 465" d="M6942.6,9078.953H6934a29.268,29.268,0,0,0-.035,5.549c.193,2.5.843,6.758,4.156,10.069s7.543,3.91,10.069,4.155a29.956,29.956,0,0,0,5.665-.035v-8.458H6942.6Z"/>
      <path id="Path_466" data-name="Path 466" d="M6965.955,9093.766a4.982,4.982,0,1,1-4.982-4.98,4.982,4.982,0,0,1,4.982,4.98"/>
      <path id="Path_467" data-name="Path 467" d="M6956.983,9086.75h8.609a29.187,29.187,0,0,0,.035-5.549c-.193-2.5-.843-6.757-4.155-10.068s-7.544-3.911-10.069-4.156a29.965,29.965,0,0,0-5.666.035v8.458h11.246Z"/>
      <path id="Path_468" data-name="Path 468" d="M7101.194,9093.94c-3.219,0-5.534-2.04-5.534-5.729v-10.518h-4.788v15.854H7086.4v-13.461c0-3.964,2.9-6.554,6.829-6.554a6.356,6.356,0,0,1,6.671,6.554v9.968h2.591v-9.968a6.357,6.357,0,0,1,6.671-6.554c3.925,0,6.829,2.59,6.829,6.554v13.461h-4.474v-15.854h-4.788v10.518c0,3.649-2.276,5.729-5.533,5.729m-30.062-20.016v15.9h8.477v-15.9h4.513v12.52c0,5.142-3.179,7.5-8.751,7.5-5.534,0-8.752-2.354-8.752-7.5v-12.52Zm-11.342,3.729h-10.125v4.2h10.125Zm-10.125,7.651v4.436h10.086v-2.708h4.513c-.471,4.316-3.571,6.907-9.3,6.907-6.711,0-10.007-3.571-10.007-10.321,0-6.593,3.492-10.086,9.811-10.086,6.436,0,9.732,3.454,9.732,10.086a12.19,12.19,0,0,1-.078,1.687Zm-24.371-11.381h4.552v7.771h8.516v-7.771h4.435v19.623h-4.435v-7.928h-8.516v7.928h-4.552Zm-7.261,4.475h5.456v-4.475h-5.456Zm-5.337,15.148.039-15.148h-6.161v-4.475h4.435a6.056,6.056,0,0,1,6.436,6.438v13.186Zm-12.676-13.54h4.906v13.54h-4.906Zm2.433-1.177a2.782,2.782,0,0,0,2.787-2.826,2.787,2.787,0,0,0-5.573,0,2.78,2.78,0,0,0,2.786,2.826m-15.423-4.906-.039,15.149h11.145v4.474H6988.6c-3.886,0-6.358-2.551-6.358-6.436v-13.187Z"/>
    </g>
    <line id="Line_169" data-name="Line 169" x2="749.311" transform="translate(6393.834 9038.482)" fill="none" stroke="#fff" stroke-miterlimit="10" stroke-width="3" stroke-dasharray="1 5"/>
    <path id="Path_469" data-name="Path 469" d="M6393.834,9524.013" fill="none" stroke="#fff" stroke-miterlimit="10" stroke-width="3" stroke-dasharray="1 5"/>
    <text id="GLOBAL_REAL_DEMAND_LIMIT" data-name="GLOBAL REAL DEMAND LIMIT" transform="translate(6579.814 8979.417)" fill="#fff" font-size="24.508" font-family="Lucky-Linear, Lucky Linear"><tspan x="38.057" y="19">GLOBAL REAL DEMAND </tspan></text>
    <text id="OTHER_BLOCKCHAINS" data-name="OTHER BLOCKCHAINS" transform="translate(6751.273 9540.313)" font-size="24.508" font-family="Lucky-Linear, Lucky Linear"><tspan x="85.328" y="19">OTHER BLOCKCHAINS</tspan></text>
  </g>
</svg>
