<svg xmlns="http://www.w3.org/2000/svg" width="1466.305" height="1488.316" viewBox="0 0 1466.305 1488.316">
  <g id="Group_318" data-name="Group 318" transform="translate(-8184.867 -2448.284)">
    <g id="Group_316" data-name="Group 316">
      <text id="VALUE" transform="translate(8840.757 3872.549)" fill="#ebff54" font-size="45.042" font-family="'LitheumTitle_betav1\.0-Monolinear', 'Litheum Title_beta v1\.0 Monolinear'"><tspan x="0" y="0">VALUE</tspan></text>
      <text id="CRE" transform="translate(8798.777 3926.6)" fill="#ebff54" font-size="45.042" font-family="'LitheumTitle_betav1\.0-Monolinear', 'Litheum Title_beta v1\.0 Monolinear'"><tspan x="0" y="0">CRE</tspan></text>
      <text id="AT" transform="translate(8894.267 3926.6)" fill="#ebff54" font-size="45.042" font-family="'LitheumTitle_betav1\.0-Monolinear', 'Litheum Title_beta v1\.0 Monolinear'"><tspan x="0" y="0">AT</tspan></text>
      <text id="IO" transform="translate(8957.775 3926.6)" fill="#ebff54" font-size="45.042" font-family="'LitheumTitle_betav1\.0-Monolinear', 'Litheum Title_beta v1\.0 Monolinear'"><tspan x="0" y="0">IO</tspan></text>
      <text id="N" transform="translate(9005.024 3926.6)" fill="#ebff54" font-size="45.042" font-family="'LitheumTitle_betav1\.0-Monolinear', 'Litheum Title_beta v1\.0 Monolinear'"><tspan x="0" y="0">N</tspan></text>
      <text id="Bl" transform="translate(9284.133 2923.971)" fill="#ebff54" font-size="29.879" font-family="'LitheumTitle_betav1\.0-Monolinear', 'Litheum Title_beta v1\.0 Monolinear'"><tspan x="0" y="0">Bl</tspan></text>
      <text id="ock" transform="translate(9314.25 2923.971)" fill="#ebff54" font-size="29.879" font-family="'LitheumTitle_betav1\.0-Monolinear', 'Litheum Title_beta v1\.0 Monolinear'"><tspan x="0" y="0">ock</tspan></text>
      <text id="Fa" transform="translate(9263.727 2959.827)" fill="#ebff54" font-size="29.879" font-family="'LitheumTitle_betav1\.0-Monolinear', 'Litheum Title_beta v1\.0 Monolinear'"><tspan x="0" y="0">Fa</tspan></text>
      <text id="rmer" transform="translate(9300.836 2959.827)" fill="#ebff54" font-size="29.879" font-family="'LitheumTitle_betav1\.0-Monolinear', 'Litheum Title_beta v1\.0 Monolinear'"><tspan x="0" y="0">rmer</tspan></text>
      <text id="s" transform="translate(9373.858 2959.827)" fill="#ebff54" font-size="29.879" font-family="'LitheumTitle_betav1\.0-Monolinear', 'Litheum Title_beta v1\.0 Monolinear'"><tspan x="0" y="0">s</tspan></text>
      <text id="Lu" transform="translate(9282.071 3611.507)" fill="#ebff54" font-size="29.879" font-family="'LitheumTitle_betav1\.0-Monolinear', 'Litheum Title_beta v1\.0 Monolinear'"><tspan x="0" y="0">Lu</tspan></text>
      <text id="ck" transform="translate(9320.674 3611.507)" fill="#ebff54" font-size="29.879" font-family="'LitheumTitle_betav1\.0-Monolinear', 'Litheum Title_beta v1\.0 Monolinear'"><tspan x="0" y="0">ck</tspan></text>
      <text id="y" transform="translate(9356.857 3611.507)" fill="#ebff54" font-size="29.879" font-family="'LitheumTitle_betav1\.0-Monolinear', 'Litheum Title_beta v1\.0 Monolinear'"><tspan x="0" y="0">y</tspan></text>
      <text id="Fa-2" data-name="Fa" transform="translate(9265.848 3647.36)" fill="#ebff54" font-size="29.879" font-family="'LitheumTitle_betav1\.0-Monolinear', 'Litheum Title_beta v1\.0 Monolinear'"><tspan x="0" y="0">Fa</tspan></text>
      <text id="rmer-2" data-name="rmer" transform="translate(9302.955 3647.36)" fill="#ebff54" font-size="29.879" font-family="'LitheumTitle_betav1\.0-Monolinear', 'Litheum Title_beta v1\.0 Monolinear'"><tspan x="0" y="0">rmer</tspan></text>
      <text id="s-2" data-name="s" transform="translate(9375.979 3647.36)" fill="#ebff54" font-size="29.879" font-family="'LitheumTitle_betav1\.0-Monolinear', 'Litheum Title_beta v1\.0 Monolinear'"><tspan x="0" y="0">s</tspan></text>
      <path id="Path_227" data-name="Path 227" d="M8527.262,2769.446H8490a18.882,18.882,0,1,1-18.861,18.884A18.871,18.871,0,0,1,8490,2769.446" fill="#ebff54"/>
      <path id="Path_228" data-name="Path 228" d="M8533.6,2769.446a18.882,18.882,0,1,0,18.861,18.884,18.871,18.871,0,0,0-18.861-18.884h-6.338" fill="#ebff54"/>
      <path id="Path_229" data-name="Path 229" d="M8581.613,2834.042V2805.26a97.51,97.51,0,0,0-18.533-.117c-8.339.644-22.566,2.819-33.622,13.892-11.018,11.035-13.06,25.22-13.88,33.662a100.219,100.219,0,0,0,.119,18.943h28.246v-37.6Z" fill="#ebff54"/>
      <path id="Path_230" data-name="Path 230" d="M8477.552,2871.453h28.75a97.836,97.836,0,0,0,.119-18.553c-.644-8.349-2.817-22.59-13.878-33.66-11.023-11.028-25.194-13.072-33.627-13.9a99.862,99.862,0,0,0-18.921.12v28.276h37.557Z" fill="#ebff54"/>
      <path id="Path_231" data-name="Path 231" d="M9395.579,2832.2v-28.672a97.114,97.114,0,0,0-18.46-.117c-8.31.642-22.482,2.808-33.5,13.84-10.976,10.993-13.011,25.124-13.826,33.533a99.719,99.719,0,0,0,.117,18.871h28.138V2832.2Z" fill="#ebff54"/>
      <path id="Path_232" data-name="Path 232" d="M9291.915,2869.471h28.64a97.491,97.491,0,0,0,.119-18.481c-.642-8.318-2.8-22.506-13.826-33.533-10.979-10.988-25.1-13.025-33.5-13.841a99.624,99.624,0,0,0-18.849.117V2831.9h37.412Z" fill="#ebff54"/>
      <text id="Data" transform="translate(8477.41 3611)" fill="#ebff54" font-size="29.879" font-family="'LitheumTitle_betav1\.0-Monolinear', 'Litheum Title_beta v1\.0 Monolinear'"><tspan x="0" y="0">Data</tspan></text>
      <text id="Fa-3" data-name="Fa" transform="translate(8449.949 3646.854)" fill="#ebff54" font-size="29.879" font-family="'LitheumTitle_betav1\.0-Monolinear', 'Litheum Title_beta v1\.0 Monolinear'"><tspan x="0" y="0">Fa</tspan></text>
      <text id="rmer-3" data-name="rmer" transform="translate(8487.059 3646.854)" fill="#ebff54" font-size="29.879" font-family="'LitheumTitle_betav1\.0-Monolinear', 'Litheum Title_beta v1\.0 Monolinear'"><tspan x="0" y="0">rmer</tspan></text>
      <text id="s-3" data-name="s" transform="translate(8560.081 3646.854)" fill="#ebff54" font-size="29.879" font-family="'LitheumTitle_betav1\.0-Monolinear', 'Litheum Title_beta v1\.0 Monolinear'"><tspan x="0" y="0">s</tspan></text>
      <path id="Path_233" data-name="Path 233" d="M8584.057,3521.656v-28.682a97.052,97.052,0,0,0-18.468-.12c-8.311.643-22.489,2.811-33.507,13.846-10.979,11-13.015,25.132-13.831,33.547a99.761,99.761,0,0,0,.117,18.875h28.146v-37.466Z" fill="#ebff54"/>
      <path id="Path_234" data-name="Path 234" d="M8480.356,3558.936h28.65a97.505,97.505,0,0,0,.117-18.488c-.642-8.321-2.806-22.515-13.831-33.545-10.983-10.99-25.1-13.027-33.508-13.845a99.607,99.607,0,0,0-18.856.117v28.18h37.428Z" fill="#ebff54"/>
      <path id="Path_235" data-name="Path 235" d="M9213.782,2788.916l-16.247-16.658-552.462.035,16.213,16.623-16.292,16.707h552.5Z" fill="none" stroke="#ebff54" stroke-linejoin="round" stroke-width="2.344"/>
      <text id="TRANSACTIONS" transform="translate(8805.438 2799.709)" fill="#ebff54" font-size="29.879" font-family="'LitheumTitle_betav1\.0-Monolinear', 'Litheum Title_beta v1\.0 Monolinear'"><tspan x="0" y="0">TRANSACTIONS</tspan></text>
      <path id="Path_236" data-name="Path 236" d="M8515.879,2999.645l-16.66,16.259.037,391.683,16.623-16.224,16.7,16.3V3015.948Z" fill="none" stroke="#ebff54" stroke-linejoin="round" stroke-width="2.344"/>
      <path id="Path_237" data-name="Path 237" d="M9330.043,3407.23l16.225-16.222-.035-390.847-16.189,16.189-16.269-16.269v390.882Z" fill="#ebff54"/>
      <text id="A" transform="matrix(0, -1, 1, 0, 8526.486, 3219.395)" fill="#ebff54" font-size="29.878" font-family="'LitheumTitle_betav1\.0-Monolinear', 'Litheum Title_beta v1\.0 Monolinear'"><tspan x="0" y="0">A</tspan></text>
      <text id="N-2" data-name="N" transform="matrix(0, -1, 1, 0, 8526.486, 3262.628)" fill="#ebff54" font-size="29.878" font-family="'LitheumTitle_betav1\.0-Monolinear', 'Litheum Title_beta v1\.0 Monolinear'"><tspan x="0" y="0">N</tspan></text>
      <text id="A-2" data-name="A" transform="matrix(0, -1, 1, 0, 8526.485, 3285.215)" fill="#ebff54" font-size="29.878" font-family="'LitheumTitle_betav1\.0-Monolinear', 'Litheum Title_beta v1\.0 Monolinear'"><tspan x="0" y="0">A</tspan></text>
      <text id="R" transform="matrix(0, -1, 1, 0, 8526.485, 3307.175)" fill="#ebff54" font-size="29.878" font-family="'LitheumTitle_betav1\.0-Monolinear', 'Litheum Title_beta v1\.0 Monolinear'"><tspan x="0" y="0">R</tspan></text>
      <text id="T" transform="matrix(0, -1, 1, 0, 8526.485, 3327.615)" fill="#ebff54" font-size="29.878" font-family="'LitheumTitle_betav1\.0-Monolinear', 'Litheum Title_beta v1\.0 Monolinear'"><tspan x="0" y="0">T</tspan></text>
      <path id="Path_238" data-name="Path 238" d="M8645.426,2841.879l16.224,16.224,551.61-.035-16.187-16.187,16.267-16.269H8661.691Z" fill="#ebff54"/>
      <text id="DA" transform="translate(8886.089 2852.923)" fill="#545429" font-size="29.879" font-family="'LitheumTitle_betav1\.0-Monolinear', 'Litheum Title_beta v1\.0 Monolinear'"><tspan x="0" y="0">DA</tspan></text>
      <text id="TA" transform="translate(8929.65 2852.923)" fill="#545429" font-size="29.879" font-family="'LitheumTitle_betav1\.0-Monolinear', 'Litheum Title_beta v1\.0 Monolinear'"><tspan x="0" y="0">TA</tspan></text>
      <text id="DA-2" data-name="DA" transform="translate(9318.799 3155.384) rotate(90)" fill="#545429" font-size="29.879" font-family="'LitheumTitle_betav1\.0-Monolinear', 'Litheum Title_beta v1\.0 Monolinear'"><tspan x="0" y="0">DA</tspan></text>
      <text id="TA-2" data-name="TA" transform="translate(9318.801 3198.947) rotate(90)" fill="#545429" font-size="29.879" font-family="'LitheumTitle_betav1\.0-Monolinear', 'Litheum Title_beta v1\.0 Monolinear'"><tspan x="0" y="0">TA</tspan></text>
      <path id="Path_239" data-name="Path 239" d="M8645.426,3525.825l16.224,16.224,551.61-.035-16.187-16.187,16.267-16.269H8661.691Z" fill="#ebff54"/>
      <text id="DA-3" data-name="DA" transform="translate(8886.089 3537.082)" fill="#545429" font-size="29.879" font-family="'LitheumTitle_betav1\.0-Monolinear', 'Litheum Title_beta v1\.0 Monolinear'"><tspan x="0" y="0">DA</tspan></text>
      <text id="TA-3" data-name="TA" transform="translate(8929.65 3537.082)" fill="#545429" font-size="29.879" font-family="'LitheumTitle_betav1\.0-Monolinear', 'Litheum Title_beta v1\.0 Monolinear'"><tspan x="0" y="0">TA</tspan></text>
      <path id="Path_240" data-name="Path 240" d="M9399.432,3511.365V3482.9a96.443,96.443,0,0,0-18.326-.118c-8.248.638-22.315,2.789-33.249,13.738-10.895,10.912-12.915,24.94-13.727,33.289a99.051,99.051,0,0,0,.12,18.732h27.929v-37.18Z" fill="#ebff54"/>
      <path id="Path_241" data-name="Path 241" d="M9296.527,3548.359h28.431a96.74,96.74,0,0,0,.117-18.345c-.637-8.257-2.784-22.342-13.724-33.287-10.9-10.909-24.912-12.929-33.252-13.742a98.814,98.814,0,0,0-18.711.119v27.962h37.139Z" fill="#ebff54"/>
      <path id="Path_242" data-name="Path 242" d="M9330.049,3435.071a40.046,40.046,0,0,1-30.3,30.685,30.3,30.3,0,1,0,60.6,0,40.044,40.044,0,0,1-30.3-30.685" fill="#ebff54"/>
      <path id="Path_243" data-name="Path 243" d="M8491.28,3482.6a22.29,22.29,0,1,1,22.289,22.293,22.289,22.289,0,0,1-22.289-22.293" fill="#ebff54" stroke="#545429" stroke-miterlimit="10" stroke-width="1"/>
      <path id="Path_244" data-name="Path 244" d="M8491.28,3470.675a22.29,22.29,0,1,1,22.289,22.29,22.29,22.29,0,0,1-22.289-22.29" fill="#ebff54" stroke="#545429" stroke-miterlimit="10" stroke-width="1"/>
      <path id="Path_245" data-name="Path 245" d="M8491.28,3458.752a22.29,22.29,0,1,1,22.289,22.29,22.29,22.29,0,0,1-22.289-22.29" fill="#ebff54" stroke="#545429" stroke-miterlimit="10" stroke-width="1"/>
      <path id="Path_246" data-name="Path 246" d="M9095,2485.439c317.958,76.611,555,364.059,555,705.587s-236.238,627.867-554.2,704.478l-19.055-12.8,12.835-19.109h-.021c302.354-74.047,526.732-347.285,526.732-673.029,0-326.023-224.767-599.453-527.519-673.216l-12.835-19.111Zm-353.959,0c-317.956,76.611-555,364.059-555,705.587s236.238,627.867,554.193,704.478l19.058-12.8-12.837-19.109h.021c-302.353-74.047-526.732-347.285-526.732-673.029,0-326.023,224.769-599.453,527.518-673.216l12.837-19.111Z" fill="none" stroke="#ebff54" stroke-linejoin="round" stroke-width="2.344"/>
      <path id="Path_247" data-name="Path 247" d="M8924.682,2448.284l-.189,82.93h45.955v21.6h-38.188c-18.755,0-30.689-12.314-30.689-31.07v-73.458Z" fill="#ebff54"/>
      <rect id="Rectangle_65" data-name="Rectangle 65" width="58.169" height="15.786" transform="translate(8886.611 2476.063)" fill="#ebff54"/>
      <rect id="Rectangle_66" data-name="Rectangle 66" width="58.169" height="15.786" transform="translate(8886.611 2502.642)" fill="#ebff54"/>
      <text id="every_service_is_incentivized" data-name="every service  
is incentivized" transform="translate(8633.325 3099.806)" fill="#fff" font-size="74.22" font-family="Lucky-Linear, Lucky Linear"><tspan x="31.135" y="57" xml:space="preserve">every service  </tspan><tspan x="15.141" y="146.064">is incentivized</tspan></text>
    </g>
    <g id="Group_317" data-name="Group 317">
      <text id="Fa-4" data-name="Fa" transform="translate(8449.471 2959.827)" fill="#ebff54" font-size="29.879" font-family="'LitheumTitle_betav1\.0-Monolinear', 'Litheum Title_beta v1\.0 Monolinear'"><tspan x="0" y="0">Fa</tspan></text>
      <text id="rmer-4" data-name="rmer" transform="translate(8486.581 2959.827)" fill="#ebff54" font-size="29.879" font-family="'LitheumTitle_betav1\.0-Monolinear', 'Litheum Title_beta v1\.0 Monolinear'"><tspan x="0" y="0">rmer</tspan></text>
      <text id="s-4" data-name="s" transform="translate(8559.604 2959.827)" fill="#ebff54" font-size="29.879" font-family="'LitheumTitle_betav1\.0-Monolinear', 'Litheum Title_beta v1\.0 Monolinear'"><tspan x="0" y="0">s</tspan></text>
      <g id="Group_56" data-name="Group 56">
        <text id="S-5" data-name="S" transform="matrix(0, -1, 1, 0, 8526.489, 3099.282)" fill="#ebff54" font-size="29.878" font-family="'LitheumTitle_betav1\.0-Monolinear', 'Litheum Title_beta v1\.0 Monolinear'"><tspan x="0" y="0">S</tspan></text>
        <text id="N-3" data-name="N" transform="matrix(0, -1, 1, 0, 8526.487, 3122.951)" fill="#ebff54" font-size="29.878" font-family="'LitheumTitle_betav1\.0-Monolinear', 'Litheum Title_beta v1\.0 Monolinear'"><tspan x="0" y="0">N</tspan></text>
        <text id="O" transform="matrix(0, -1, 1, 0, 8526.487, 3146.073)" fill="#ebff54" font-size="29.878" font-family="'LitheumTitle_betav1\.0-Monolinear', 'Litheum Title_beta v1\.0 Monolinear'"><tspan x="0" y="0">O</tspan></text>
        <text id="I" transform="matrix(0, -1, 1, 0, 8526.486, 3154.263)" fill="#ebff54" font-size="29.878" font-family="'LitheumTitle_betav1\.0-Monolinear', 'Litheum Title_beta v1\.0 Monolinear'"><tspan x="0" y="0">I</tspan></text>
        <text id="T-2" data-name="T" transform="matrix(0, -1, 1, 0, 8526.488, 3174.698)" fill="#ebff54" font-size="29.878" font-family="'LitheumTitle_betav1\.0-Monolinear', 'Litheum Title_beta v1\.0 Monolinear'"><tspan x="0" y="0">T</tspan></text>
        <text id="C" transform="matrix(0, -1, 1, 0, 8526.486, 3196.809)" fill="#ebff54" font-size="29.878" font-family="'LitheumTitle_betav1\.0-Monolinear', 'Litheum Title_beta v1\.0 Monolinear'"><tspan x="0" y="0">C</tspan></text>
        <text id="S-6" data-name="S" transform="matrix(0, -1, 1, 0, 8526.486, 3238.965)" fill="#ebff54" font-size="29.878" font-family="'LitheumTitle_betav1\.0-Monolinear', 'Litheum Title_beta v1\.0 Monolinear'"><tspan x="0" y="0">S</tspan></text>
      </g>
      <rect id="Rectangle_63" data-name="Rectangle 63" width="38.453" height="38.453" transform="translate(9305.813 2770.735)" fill="#ebff54"/>
      <text id="Tr" transform="translate(8421.356 2923.971)" fill="#ebff54" font-size="29.879" font-family="'LitheumTitle_betav1\.0-Monolinear', 'Litheum Title_beta v1\.0 Monolinear'"><tspan x="0" y="0">Tr</tspan></text>
      <text id="ansactio" transform="translate(8451.444 2923.971)" fill="#ebff54" font-size="29.879" font-family="'LitheumTitle_betav1\.0-Monolinear', 'Litheum Title_beta v1\.0 Monolinear'"><tspan x="0" y="0">ansactio</tspan></text>
      <text id="n-4" data-name="n" transform="translate(8585.329 2923.971)" fill="#ebff54" font-size="29.879" font-family="'LitheumTitle_betav1\.0-Monolinear', 'Litheum Title_beta v1\.0 Monolinear'"><tspan x="0" y="0">n</tspan></text>
      <rect id="Rectangle_64" data-name="Rectangle 64" width="38.453" height="38.453" transform="translate(9305.813 2770.735)" fill="none" stroke="#b0ad8f" stroke-miterlimit="10" stroke-width="2.344"/>
    </g>
  </g>
</svg>
