<svg xmlns="http://www.w3.org/2000/svg" width="1011" height="767.497" viewBox="0 0 1011 767.497">
  <g id="Group_319" data-name="Group 319" transform="translate(-8422.927 -10727.74)">
    <text id="Ecosystem" transform="translate(8422.927 11157.738)" fill="#ebff55" font-size="175" font-family="Lucky-Linear, Lucky Linear"><tspan x="0" y="0">Ecosystem</tspan></text>
    <path id="Path_22" data-name="Path 22" d="M9297,11204.123c-40.1,166.427-190.557,290.5-369.32,290.5s-328.64-123.652-368.739-290.079l6.7-9.974,10,6.718v-.011c38.759,158.26,181.777,275.7,352.279,275.7,170.647,0,313.768-117.648,352.376-276.115l10-6.718Zm0-185.271c-40.1-166.425-190.557-290.5-369.32-290.5s-328.64,123.652-368.739,290.077l6.7,9.976,10-6.72v.012c38.759-158.258,181.777-275.7,352.279-275.7,170.647,0,313.768,117.648,352.376,276.115l10,6.719Z" fill="none" stroke="#ebff54" stroke-linejoin="round" stroke-width="1.227"/>
  </g>
</svg>
