<svg xmlns="http://www.w3.org/2000/svg" width="85.243" height="79.012" viewBox="0 0 85.243 79.012">
  <g id="Group_11" data-name="Group 11" transform="translate(-8885.39 -11748.399)">
    <path id="Path_24" data-name="Path 24" d="M8970.633,11765.891l-17.093-17.094a82.07,82.07,0,0,0-11.089,10.948c-4.576,5.342-11.743,15.092-11.74,28.242,0,13.1,7.214,22.743,11.74,28.245a84.042,84.042,0,0,0,11.321,11.179l16.793-16.793-22.329-22.33Z" fill="#fff"/>
    <path id="Path_25" data-name="Path 25" d="M8885.39,11809.919l17.095,17.094a82,82,0,0,0,11.088-10.947c4.577-5.343,11.743-15.093,11.739-28.242,0-13.1-7.214-22.744-11.739-28.244a84.107,84.107,0,0,0-11.32-11.18l-16.794,16.793,22.33,22.33Z" fill="#fff"/>
  </g>
</svg>
