<svg width="213" height="211" viewBox="0 0 213 211" fill="none" xmlns="http://www.w3.org/2000/svg">
<path d="M0 33.3301C0 26.8587 1.91902 20.5326 5.51434 15.1519C9.10966 9.77108 14.2198 5.57727 20.1986 3.10077C26.1774 0.624271 32.7563 -0.0236761 39.1033 1.23883C45.4504 2.50134 51.2805 5.6176 55.8565 10.1936C60.4325 14.7695 63.5488 20.5997 64.8113 26.9468C66.0738 33.2938 65.4258 39.8727 62.9493 45.8515C60.4728 51.8303 56.279 56.9405 50.8983 60.5358C45.5175 64.1311 39.1914 66.0501 32.72 66.0501C24.0421 66.0501 15.7197 62.6028 9.5835 56.4666C3.44731 50.3305 0 42.008 0 33.3301Z" fill="#EBFF55"/>
<path d="M58.9399 79.4102H2.3999C1.2199 88.0402 1.09986 101.96 2.16986 115.85C3.43986 132.25 7.7099 160.23 29.4599 181.97C51.2099 203.71 78.9999 207.65 95.5799 209.26C107.02 210.37 123.97 210.26 132.79 209.02V153.49H58.9399V79.4102Z" fill="#EBFF55"/>
<path d="M212.28 176.7C212.284 183.172 210.368 189.5 206.775 194.884C203.182 200.267 198.074 204.464 192.095 206.944C186.117 209.423 179.537 210.074 173.189 208.814C166.84 207.553 161.008 204.439 156.43 199.864C151.852 195.288 148.734 189.458 147.47 183.111C146.206 176.763 146.853 170.183 149.329 164.203C151.805 158.223 155.998 153.112 161.38 149.516C166.761 145.919 173.088 144 179.56 144C183.857 144 188.112 144.846 192.081 146.491C196.051 148.135 199.658 150.545 202.696 153.583C205.735 156.622 208.145 160.229 209.789 164.199C211.434 168.168 212.28 172.423 212.28 176.72" fill="#EBFF55"/>
<path d="M153.36 130.62H209.9C211.08 121.99 211.2 108.07 210.13 94.1801C208.86 77.7801 204.59 49.8001 182.84 28.0601C161.09 6.32006 133.3 2.38005 116.72 0.770051C105.28 -0.339949 88.33 -0.229938 79.51 1.00006V56.5401H153.37L153.36 130.62Z" fill="#EBFF55"/>
</svg>
